<svg xmlns="http://www.w3.org/2000/svg" width="100" height="100">
    <defs>
        <clipPath id="TextBounds">
            <rect height="35.5949" width="59.84" x="20.08" y="32.2025"/>
        </clipPath>
        <filter color-interpolation-filters="sRGB" filterUnits="userSpaceOnUse" height="30.1531" id="Filter" width="58.4486" x="22.6829" y="39.3547">
            <feComponentTransfer in="SourceGraphic" result="Alpha">
                <feFuncA slope="0.908915" type="linear"/>
            </feComponentTransfer>
            <feDropShadow dx="2.09609" dy="1.48447" flood-color="#000000" flood-opacity="0.33" in="Alpha" result="Shadow" stdDeviation="0.941781"/>
        </filter>
    </defs>
    <g id="Layer-1">
        <g fill="#000000" filter="url(#Filter)" stroke="none" opacity="0.859">
            <path clip-path="url(#TextBounds)" d="M35.3671 58.9627C35.3671 59.5478 35.348 60.0629 35.3099 60.5081C35.2717 60.9532 35.2187 61.3454 35.1509 61.6845C34.9474 62.6172 34.5489 63.4185 33.9553 64.0884C32.8361 65.3772 31.2971 66.0216 29.3384 66.0216C27.685 66.0216 26.3241 65.5765 25.2557 64.6862C24.1534 63.7704 23.5175 62.5028 23.3479 60.8833L26.2224 60.8833C26.3326 61.4938 26.5149 61.9643 26.7693 62.295C27.3628 63.0666 28.2277 63.4524 29.3639 63.4524C31.4582 63.4524 32.5054 62.1678 32.5054 59.5987L32.5054 57.8689C31.3692 59.0306 30.0592 59.6114 28.5753 59.6114C26.888 59.6114 25.5059 59.0009 24.429 57.7799C23.3437 56.5419 22.801 54.9945 22.801 53.1376C22.801 51.3315 23.3055 49.7968 24.3145 48.5334C25.3999 47.1937 26.8329 46.5238 28.6135 46.5238C30.1736 46.5238 31.4709 47.1046 32.5054 48.2663L32.5054 46.8672L35.3671 46.8672L35.3671 58.9627ZM32.6199 53.0867C32.6199 51.8826 32.2977 50.9203 31.6532 50.1995C31.0004 49.4618 30.1652 49.093 29.1477 49.093C28.0623 49.093 27.2059 49.4958 26.5785 50.3013C26.0104 51.022 25.7263 51.9547 25.7263 53.0994C25.7263 54.2271 26.0104 55.1514 26.5785 55.8721C27.1975 56.6606 28.0538 57.0549 29.1477 57.0549C30.2415 57.0549 31.1063 56.6564 31.7423 55.8594C32.3273 55.1386 32.6199 54.2144 32.6199 53.0867Z"/>
            <path clip-path="url(#TextBounds)" d="M38.9792 46.8672L41.8409 46.8672L41.8409 48.0119C42.3921 47.4353 42.8627 47.0453 43.2527 46.8418C43.6682 46.6298 44.1897 46.5238 44.8171 46.5238C46.2162 46.5238 47.3227 47.1343 48.1367 48.3553C49.0355 47.1343 50.2523 46.5238 51.787 46.5238C54.5766 46.5238 55.9714 48.2154 55.9714 51.5986L55.9714 59.2553L53.097 59.2553L53.097 52.3744C53.097 51.1874 52.9529 50.3479 52.6646 49.8561C52.3678 49.3559 51.8803 49.1057 51.2019 49.1057C50.4134 49.1057 49.8389 49.4025 49.4785 49.996C49.1182 50.5896 48.938 51.5435 48.938 52.8577L48.938 59.2553L46.0636 59.2553L46.0636 52.4126C46.0636 50.208 45.4276 49.1057 44.1557 49.1057C43.3502 49.1057 42.763 49.4067 42.3942 50.0087C42.0254 50.6108 41.8409 51.5604 41.8409 52.8577L41.8409 59.2553L38.9792 59.2553L38.9792 46.8672Z"/>
            <path clip-path="url(#TextBounds)" d="M63.6917 56.5589L71.0558 56.5589L71.0558 59.2553L58.0192 59.2553L66.0447 49.5382L59.7235 49.5382L59.7235 46.8672L71.7045 46.8672L63.6917 56.5589Z"/>
            <path clip-path="url(#TextBounds)" d="M76.6012 46.8672L76.6012 59.2553L73.7395 59.2553L73.7395 46.8672L76.6012 46.8672ZM73.3071 41.7161C73.3071 41.2159 73.4894 40.7834 73.854 40.4188C74.2186 40.0542 74.6552 39.8719 75.164 39.8719C75.6812 39.8719 76.1221 40.0542 76.4867 40.4188C76.8513 40.775 77.0336 41.2116 77.0336 41.7289C77.0336 42.2461 76.8513 42.687 76.4867 43.0516C76.1306 43.4162 75.6939 43.5985 75.1767 43.5985C74.6595 43.5985 74.2186 43.4162 73.854 43.0516C73.4894 42.687 73.3071 42.2419 73.3071 41.7161Z"/>
        </g>
    </g>
    <g id="Layer-2">
        <path d="M5.77884 4.44999L93.9129 4.44999C94.8935 4.44999 95.6884 5.24494 95.6884 6.22555L95.6884 94.2934C95.6884 95.2741 94.8935 96.069 93.9129 96.069L5.77884 96.069C4.79822 96.069 4.00328 95.2741 4.00328 94.2934L4.00328 6.22555C4.00328 5.24494 4.79822 4.44999 5.77884 4.44999Z" fill="none" opacity="0.877801" stroke="#000000" stroke-linecap="butt" stroke-linejoin="round" stroke-width="0.317848"/>
    </g>
</svg>